<svg xmlns="http://www.w3.org/2000/svg" viewBox="0 0 90 54"><rect width="90" height="54" fill="#12316f"/><g fill="#fff"><path d="M62 14l2 5 5 1-4 3 1 5-4-3-4 3 1-5-4-3 5-1zM73 34l1 4 4 1-3 2 1 4-3-2-3 2 1-4-3-2 4-1zM50 36l1 3 3 1-2 2v3l-3-2-3 2v-3l-2-2 3-1z"/></g><rect width="40" height="26" fill="#153a7a"/><path d="M0 0l40 26M40 0L0 26" stroke="#fff" stroke-width="7"/><path d="M20 0v26M0 13h40" stroke="#fff" stroke-width="10"/><path d="M20 0v26M0 13h40" stroke="#e52535" stroke-width="5"/></svg>
