<svg xmlns="http://www.w3.org/2000/svg" viewBox="0 0 1800 760" preserveAspectRatio="xMidYMid slice">
  <defs>
    <linearGradient id="sky" x1="0" x2="1" y1="0" y2="1">
      <stop stop-color="#0d83bf"/>
      <stop offset=".34" stop-color="#8fc8e2"/>
      <stop offset=".64" stop-color="#eadccf"/>
      <stop offset="1" stop-color="#9d7b72"/>
    </linearGradient>
    <linearGradient id="glass" x1="0" x2="0" y1="0" y2="1">
      <stop stop-color="#2a536c"/>
      <stop offset="1" stop-color="#102536"/>
    </linearGradient>
    <linearGradient id="photoShade" x1="0" x2="1" y1="0" y2="1">
      <stop stop-color="#1d1846" stop-opacity=".82"/>
      <stop offset=".55" stop-color="#342e6c" stop-opacity=".42"/>
      <stop offset="1" stop-color="#342e6c" stop-opacity=".55"/>
    </linearGradient>
    <filter id="soften"><feGaussianBlur stdDeviation="1.1"/></filter>
  </defs>

  <rect width="1800" height="760" fill="url(#sky)"/>
  <g opacity=".82" filter="url(#soften)" fill="#fff">
    <ellipse cx="405" cy="82" rx="210" ry="60"/>
    <ellipse cx="570" cy="88" rx="150" ry="45"/>
    <ellipse cx="1300" cy="70" rx="230" ry="64"/>
    <ellipse cx="1515" cy="102" rx="210" ry="58"/>
    <ellipse cx="1700" cy="170" rx="170" ry="58"/>
  </g>

  <path d="M0 560c200-40 360-18 535-10 270 12 440-40 690-32 240 8 365 44 575 12v230H0z" fill="#455b44"/>
  <path d="M0 630h1800v130H0z" fill="#2f3637" opacity=".36"/>

  <g transform="translate(120 220)">
    <path d="M40 95h930v455H40z" fill="#7d453f"/>
    <path d="M40 95h930v455H40z" fill="#9e5b4d" opacity=".42"/>
    <path d="M92 35h770l150 72H0z" fill="#4d3f3f"/>
    <path d="M120 72h760l84 40H40z" fill="#c7b7aa"/>

    <g fill="#d6c7bd">
      <rect x="70" y="125" width="850" height="20"/>
      <rect x="70" y="275" width="850" height="18"/>
      <rect x="70" y="425" width="850" height="18"/>
      <rect x="190" y="105" width="18" height="445"/>
      <rect x="365" y="105" width="18" height="445"/>
      <rect x="540" y="105" width="18" height="445"/>
      <rect x="715" y="105" width="18" height="445"/>
    </g>
    <g fill="url(#glass)">
      <rect x="105" y="170" width="92" height="92"/>
      <rect x="250" y="170" width="92" height="92"/>
      <rect x="425" y="170" width="92" height="92"/>
      <rect x="600" y="170" width="92" height="92"/>
      <rect x="775" y="170" width="92" height="92"/>
      <rect x="105" y="320" width="92" height="92"/>
      <rect x="250" y="320" width="92" height="92"/>
      <rect x="425" y="320" width="92" height="92"/>
      <rect x="600" y="320" width="92" height="92"/>
      <rect x="775" y="320" width="92" height="92"/>
    </g>
  </g>

  <g transform="translate(955 160)">
    <path d="M0 165h555v505H0z" fill="#b9a798"/>
    <path d="M88 72h325l145 96H0z" fill="#cdbeb3"/>
    <path d="M104 104h290l78 52H45z" fill="#8f7c70"/>
    <path d="M230 120c42 0 72 28 72 65h-144c0-37 30-65 72-65z" fill="#8c7a72"/>
    <g fill="#23354a" opacity=".86">
      <rect x="58" y="215" width="82" height="118"/>
      <rect x="235" y="215" width="82" height="118"/>
      <rect x="410" y="215" width="82" height="118"/>
      <rect x="58" y="390" width="82" height="118"/>
      <path d="M235 508V390c0-48 82-48 82 0v118z"/>
      <rect x="410" y="390" width="82" height="118"/>
    </g>
    <g fill="#e2d5ca" opacity=".76">
      <rect x="0" y="165" width="555" height="22"/>
      <rect x="0" y="350" width="555" height="18"/>
      <rect x="0" y="525" width="555" height="20"/>
    </g>
  </g>

  <g>
    <rect x="88" y="118" width="45" height="640" fill="#302318"/>
    <circle cx="94" cy="108" r="165" fill="#1f411a"/>
    <circle cx="10" cy="160" r="130" fill="#294f20"/>
    <circle cx="190" cy="152" r="120" fill="#315d25"/>
    <circle cx="112" cy="230" r="95" fill="#203b18"/>
  </g>

  <rect width="1800" height="760" fill="url(#photoShade)"/>
</svg>
